<mxfile host="Electron" agent="Mozilla/5.0 (Windows NT 10.0; Win64; x64) AppleWebKit/537.36 (KHTML, like Gecko) draw.io/28.1.2 Chrome/138.0.7204.243 Electron/37.4.0 Safari/537.36" version="28.1.2" pages="8">
  <diagram name="Casos de Uso Nuvéa" id="0">
    <mxGraphModel dx="1876" dy="622" grid="1" gridSize="10" guides="1" tooltips="1" connect="1" arrows="1" fold="1" page="1" pageScale="1" pageWidth="850" pageHeight="1100" math="0" shadow="0">
      <root>
        <mxCell id="0" />
        <mxCell id="1" parent="0" />
        <mxCell id="P3sr5VePLh7i6kyqri-I-53" style="edgeStyle=orthogonalEdgeStyle;rounded=0;orthogonalLoop=1;jettySize=auto;html=1;exitX=0.75;exitY=0.1;exitDx=0;exitDy=0;exitPerimeter=0;entryX=0;entryY=0.5;entryDx=0;entryDy=0;" parent="1" source="2" target="10" edge="1">
          <mxGeometry relative="1" as="geometry">
            <Array as="points">
              <mxPoint x="-457" y="220" />
              <mxPoint x="-335" y="220" />
              <mxPoint x="-335" y="170" />
            </Array>
          </mxGeometry>
        </mxCell>
        <mxCell id="P3sr5VePLh7i6kyqri-I-54" style="edgeStyle=orthogonalEdgeStyle;rounded=0;orthogonalLoop=1;jettySize=auto;html=1;exitX=0.5;exitY=0;exitDx=0;exitDy=0;exitPerimeter=0;entryX=0;entryY=0;entryDx=0;entryDy=0;" parent="1" source="2" target="14" edge="1">
          <mxGeometry relative="1" as="geometry">
            <mxPoint x="40" y="199.9999999999999" as="targetPoint" />
            <Array as="points">
              <mxPoint x="-465" y="120" />
              <mxPoint x="73" y="120" />
            </Array>
          </mxGeometry>
        </mxCell>
        <mxCell id="P3sr5VePLh7i6kyqri-I-55" style="edgeStyle=orthogonalEdgeStyle;rounded=0;orthogonalLoop=1;jettySize=auto;html=1;exitX=1;exitY=0.3333333333333333;exitDx=0;exitDy=0;exitPerimeter=0;entryX=0;entryY=0.5;entryDx=0;entryDy=0;" parent="1" source="2" target="12" edge="1">
          <mxGeometry relative="1" as="geometry">
            <Array as="points">
              <mxPoint x="-450" y="240" />
            </Array>
          </mxGeometry>
        </mxCell>
        <mxCell id="P3sr5VePLh7i6kyqri-I-56" style="edgeStyle=orthogonalEdgeStyle;rounded=0;orthogonalLoop=1;jettySize=auto;html=1;exitX=1;exitY=0.3333333333333333;exitDx=0;exitDy=0;exitPerimeter=0;entryX=0;entryY=0;entryDx=0;entryDy=0;" parent="1" source="2" target="16" edge="1">
          <mxGeometry relative="1" as="geometry">
            <Array as="points">
              <mxPoint x="-270" y="300" />
              <mxPoint x="-270" y="280" />
              <mxPoint x="-197" y="280" />
            </Array>
          </mxGeometry>
        </mxCell>
        <mxCell id="P3sr5VePLh7i6kyqri-I-57" style="edgeStyle=orthogonalEdgeStyle;rounded=0;orthogonalLoop=1;jettySize=auto;html=1;exitX=0.5;exitY=0.5;exitDx=0;exitDy=0;exitPerimeter=0;entryX=0;entryY=0;entryDx=0;entryDy=0;" parent="1" source="2" target="20" edge="1">
          <mxGeometry relative="1" as="geometry">
            <Array as="points">
              <mxPoint x="-465" y="410" />
              <mxPoint x="-197" y="410" />
            </Array>
          </mxGeometry>
        </mxCell>
        <mxCell id="2" value="Usuario" style="shape=umlActor;verticalLabelPosition=bottom;verticalAlign=top;" parent="1" vertex="1">
          <mxGeometry x="-480" y="280" width="30" height="60" as="geometry" />
        </mxCell>
        <mxCell id="P3sr5VePLh7i6kyqri-I-36" style="rounded=0;orthogonalLoop=1;jettySize=auto;html=1;exitX=0.5;exitY=0;exitDx=0;exitDy=0;exitPerimeter=0;entryX=0;entryY=0.5;entryDx=0;entryDy=0;edgeStyle=orthogonalEdgeStyle;" parent="1" source="3" target="16" edge="1">
          <mxGeometry relative="1" as="geometry">
            <Array as="points">
              <mxPoint x="-465" y="520" />
              <mxPoint x="-390" y="520" />
              <mxPoint x="-390" y="390" />
              <mxPoint x="-270" y="390" />
              <mxPoint x="-270" y="310" />
            </Array>
          </mxGeometry>
        </mxCell>
        <mxCell id="P3sr5VePLh7i6kyqri-I-37" style="edgeStyle=orthogonalEdgeStyle;rounded=0;orthogonalLoop=1;jettySize=auto;html=1;exitX=0.75;exitY=0.1;exitDx=0;exitDy=0;exitPerimeter=0;entryX=0;entryY=0.5;entryDx=0;entryDy=0;" parent="1" source="3" target="18" edge="1">
          <mxGeometry relative="1" as="geometry">
            <mxPoint x="-240" y="380" as="targetPoint" />
            <Array as="points">
              <mxPoint x="-457" y="530" />
              <mxPoint x="-335" y="530" />
              <mxPoint x="-335" y="430" />
              <mxPoint x="-250" y="430" />
              <mxPoint x="-250" y="380" />
            </Array>
          </mxGeometry>
        </mxCell>
        <mxCell id="P3sr5VePLh7i6kyqri-I-38" style="edgeStyle=orthogonalEdgeStyle;rounded=0;orthogonalLoop=1;jettySize=auto;html=1;exitX=0.75;exitY=0.1;exitDx=0;exitDy=0;exitPerimeter=0;entryX=0;entryY=0.5;entryDx=0;entryDy=0;" parent="1" source="3" target="20" edge="1">
          <mxGeometry relative="1" as="geometry">
            <Array as="points">
              <mxPoint x="-300" y="556" />
              <mxPoint x="-300" y="450" />
            </Array>
          </mxGeometry>
        </mxCell>
        <mxCell id="P3sr5VePLh7i6kyqri-I-39" style="edgeStyle=orthogonalEdgeStyle;rounded=0;orthogonalLoop=1;jettySize=auto;html=1;exitX=1;exitY=0.3333333333333333;exitDx=0;exitDy=0;exitPerimeter=0;entryX=0;entryY=0.5;entryDx=0;entryDy=0;" parent="1" source="3" target="28" edge="1">
          <mxGeometry relative="1" as="geometry">
            <Array as="points">
              <mxPoint x="-250" y="570" />
              <mxPoint x="-250" y="520" />
            </Array>
          </mxGeometry>
        </mxCell>
        <mxCell id="P3sr5VePLh7i6kyqri-I-40" style="edgeStyle=orthogonalEdgeStyle;rounded=0;orthogonalLoop=1;jettySize=auto;html=1;exitX=1;exitY=0.3333333333333333;exitDx=0;exitDy=0;exitPerimeter=0;entryX=0;entryY=0.5;entryDx=0;entryDy=0;" parent="1" source="3" target="32" edge="1">
          <mxGeometry relative="1" as="geometry">
            <Array as="points">
              <mxPoint x="-450" y="590" />
              <mxPoint x="-335" y="590" />
              <mxPoint x="-335" y="620" />
            </Array>
          </mxGeometry>
        </mxCell>
        <mxCell id="P3sr5VePLh7i6kyqri-I-41" style="edgeStyle=orthogonalEdgeStyle;rounded=0;orthogonalLoop=1;jettySize=auto;html=1;exitX=1;exitY=1;exitDx=0;exitDy=0;exitPerimeter=0;entryX=0;entryY=0.5;entryDx=0;entryDy=0;" parent="1" source="3" target="26" edge="1">
          <mxGeometry relative="1" as="geometry">
            <Array as="points">
              <mxPoint x="-450" y="650" />
              <mxPoint x="-240" y="650" />
              <mxPoint x="-240" y="690" />
            </Array>
          </mxGeometry>
        </mxCell>
        <mxCell id="P3sr5VePLh7i6kyqri-I-42" style="edgeStyle=orthogonalEdgeStyle;rounded=0;orthogonalLoop=1;jettySize=auto;html=1;exitX=1;exitY=1;exitDx=0;exitDy=0;exitPerimeter=0;entryX=0;entryY=0.5;entryDx=0;entryDy=0;" parent="1" source="3" target="24" edge="1">
          <mxGeometry relative="1" as="geometry" />
        </mxCell>
        <mxCell id="P3sr5VePLh7i6kyqri-I-43" style="edgeStyle=orthogonalEdgeStyle;rounded=0;orthogonalLoop=1;jettySize=auto;html=1;exitX=0.5;exitY=0.5;exitDx=0;exitDy=0;exitPerimeter=0;entryX=0;entryY=0.5;entryDx=0;entryDy=0;" parent="1" source="3" target="34" edge="1">
          <mxGeometry relative="1" as="geometry">
            <Array as="points">
              <mxPoint x="-465" y="820" />
              <mxPoint x="50" y="820" />
              <mxPoint x="50" y="690" />
            </Array>
          </mxGeometry>
        </mxCell>
        <mxCell id="P3sr5VePLh7i6kyqri-I-44" style="edgeStyle=orthogonalEdgeStyle;rounded=0;orthogonalLoop=1;jettySize=auto;html=1;exitX=0.5;exitY=0.5;exitDx=0;exitDy=0;exitPerimeter=0;entryX=0;entryY=0.5;entryDx=0;entryDy=0;" parent="1" source="3" target="30" edge="1">
          <mxGeometry relative="1" as="geometry">
            <Array as="points">
              <mxPoint x="50" y="580" />
              <mxPoint x="50" y="560" />
            </Array>
          </mxGeometry>
        </mxCell>
        <mxCell id="3" value="Administrador" style="shape=umlActor;verticalLabelPosition=bottom;verticalAlign=top;" parent="1" vertex="1">
          <mxGeometry x="-480" y="550" width="30" height="60" as="geometry" />
        </mxCell>
        <mxCell id="10" value="Registrar entradas/salidas" style="ellipse;whiteSpace=wrap;html=1;" parent="1" vertex="1">
          <mxGeometry x="-220" y="140" width="160" height="60" as="geometry" />
        </mxCell>
        <mxCell id="12" value="Lista productos por reabastecer" style="ellipse;whiteSpace=wrap;html=1;" parent="1" vertex="1">
          <mxGeometry x="-220" y="210" width="160" height="60" as="geometry" />
        </mxCell>
        <mxCell id="14" value="Visualizar stock" style="ellipse;whiteSpace=wrap;html=1;dashed=1;" parent="1" vertex="1">
          <mxGeometry x="50" y="160" width="160" height="60" as="geometry" />
        </mxCell>
        <mxCell id="16" value="Iniciar sesión" style="ellipse;whiteSpace=wrap;html=1;" parent="1" vertex="1">
          <mxGeometry x="-220" y="280" width="160" height="60" as="geometry" />
        </mxCell>
        <mxCell id="18" value="Cambiar contraseña" style="ellipse;whiteSpace=wrap;html=1;" parent="1" vertex="1">
          <mxGeometry x="-220" y="350" width="160" height="60" as="geometry" />
        </mxCell>
        <mxCell id="20" value="Cerrar sesión" style="ellipse;whiteSpace=wrap;html=1;" parent="1" vertex="1">
          <mxGeometry x="-220" y="420" width="160" height="60" as="geometry" />
        </mxCell>
        <mxCell id="24" value="Eliminar usuarios" style="ellipse;whiteSpace=wrap;html=1;" parent="1" vertex="1">
          <mxGeometry x="-220" y="730" width="160" height="60" as="geometry" />
        </mxCell>
        <mxCell id="26" value="Administrar roles" style="ellipse;whiteSpace=wrap;html=1;" parent="1" vertex="1">
          <mxGeometry x="-220" y="660" width="160" height="60" as="geometry" />
        </mxCell>
        <mxCell id="28" value="Generar reportes de ventas" style="ellipse;whiteSpace=wrap;html=1;" parent="1" vertex="1">
          <mxGeometry x="-220" y="490" width="160" height="60" as="geometry" />
        </mxCell>
        <mxCell id="30" value="Exportar reportes" style="ellipse;whiteSpace=wrap;html=1;dashed=1;" parent="1" vertex="1">
          <mxGeometry x="70" y="530" width="160" height="60" as="geometry" />
        </mxCell>
        <mxCell id="32" value="Ver estadísticas" style="ellipse;whiteSpace=wrap;html=1;" parent="1" vertex="1">
          <mxGeometry x="-220" y="590" width="160" height="60" as="geometry" />
        </mxCell>
        <mxCell id="34" value="Ver ganancias" style="ellipse;whiteSpace=wrap;html=1;dashed=1;" parent="1" vertex="1">
          <mxGeometry x="70" y="660" width="160" height="60" as="geometry" />
        </mxCell>
        <mxCell id="A6CNqUEtd-RsWFDp98dp-37" value="&amp;lt;&amp;lt;include&amp;gt;&amp;gt;" style="html=1;verticalAlign=bottom;labelBackgroundColor=none;endArrow=open;endFill=0;dashed=1;rounded=0;exitX=1;exitY=0.5;exitDx=0;exitDy=0;entryX=0;entryY=0.5;entryDx=0;entryDy=0;" edge="1" parent="1" source="10" target="14">
          <mxGeometry width="160" relative="1" as="geometry">
            <mxPoint x="-60" y="200" as="sourcePoint" />
            <mxPoint x="60" y="200" as="targetPoint" />
          </mxGeometry>
        </mxCell>
        <mxCell id="A6CNqUEtd-RsWFDp98dp-38" value="&amp;lt;&amp;lt;include&amp;gt;&amp;gt;" style="html=1;verticalAlign=bottom;labelBackgroundColor=none;endArrow=open;endFill=0;dashed=1;rounded=0;entryX=0;entryY=0;entryDx=0;entryDy=0;" edge="1" parent="1" target="30">
          <mxGeometry width="160" relative="1" as="geometry">
            <mxPoint x="-60" y="520" as="sourcePoint" />
            <mxPoint x="100" y="520" as="targetPoint" />
          </mxGeometry>
        </mxCell>
        <mxCell id="A6CNqUEtd-RsWFDp98dp-39" value="&amp;lt;&amp;lt;extend&amp;gt;&amp;gt;" style="html=1;verticalAlign=bottom;labelBackgroundColor=none;endArrow=open;endFill=0;dashed=1;rounded=0;entryX=0;entryY=0;entryDx=0;entryDy=0;" edge="1" parent="1" target="34">
          <mxGeometry width="160" relative="1" as="geometry">
            <mxPoint x="-60" y="619.5" as="sourcePoint" />
            <mxPoint x="100" y="619.5" as="targetPoint" />
          </mxGeometry>
        </mxCell>
      </root>
    </mxGraphModel>
  </diagram>
  <diagram id="uj3B57ZB0ki-hjMOojnY" name="Login">
    <mxGraphModel dx="872" dy="529" grid="1" gridSize="10" guides="1" tooltips="1" connect="1" arrows="1" fold="1" page="1" pageScale="1" pageWidth="827" pageHeight="1169" math="0" shadow="0">
      <root>
        <mxCell id="0" />
        <mxCell id="1" parent="0" />
        <mxCell id="DzadTvI9jKIysKQDD1np-1" value="Inicio del Programa" style="ellipse;whiteSpace=wrap;html=1;" vertex="1" parent="1">
          <mxGeometry x="200" y="80" width="120" height="80" as="geometry" />
        </mxCell>
        <mxCell id="DzadTvI9jKIysKQDD1np-2" value="Abrir Formulario Login" style="ellipse;whiteSpace=wrap;html=1;dashed=1;" vertex="1" parent="1">
          <mxGeometry x="200" y="190" width="120" height="80" as="geometry" />
        </mxCell>
        <mxCell id="DzadTvI9jKIysKQDD1np-4" value="Ingresar al Programa" style="ellipse;whiteSpace=wrap;html=1;dashed=1;" vertex="1" parent="1">
          <mxGeometry x="200" y="300" width="120" height="80" as="geometry" />
        </mxCell>
        <mxCell id="VPNJ5BdsMGF62lAtjRaV-3" style="rounded=0;orthogonalLoop=1;jettySize=auto;html=1;exitX=0.5;exitY=0.5;exitDx=0;exitDy=0;exitPerimeter=0;entryX=0;entryY=0.5;entryDx=0;entryDy=0;" edge="1" parent="1" source="VPNJ5BdsMGF62lAtjRaV-1" target="DzadTvI9jKIysKQDD1np-1">
          <mxGeometry relative="1" as="geometry" />
        </mxCell>
        <mxCell id="vc-dIt79QZDcnwgyk6DP-6" style="rounded=0;orthogonalLoop=1;jettySize=auto;html=1;exitX=0.5;exitY=0.5;exitDx=0;exitDy=0;exitPerimeter=0;entryX=0;entryY=0.5;entryDx=0;entryDy=0;" edge="1" parent="1" source="VPNJ5BdsMGF62lAtjRaV-1" target="DzadTvI9jKIysKQDD1np-2">
          <mxGeometry relative="1" as="geometry" />
        </mxCell>
        <mxCell id="vc-dIt79QZDcnwgyk6DP-11" style="rounded=0;orthogonalLoop=1;jettySize=auto;html=1;exitX=0.5;exitY=0.5;exitDx=0;exitDy=0;exitPerimeter=0;entryX=0;entryY=0.5;entryDx=0;entryDy=0;" edge="1" parent="1" source="VPNJ5BdsMGF62lAtjRaV-1" target="DzadTvI9jKIysKQDD1np-4">
          <mxGeometry relative="1" as="geometry" />
        </mxCell>
        <mxCell id="VPNJ5BdsMGF62lAtjRaV-1" value="Administrador" style="shape=umlActor;verticalLabelPosition=bottom;verticalAlign=top;html=1;outlineConnect=0;" vertex="1" parent="1">
          <mxGeometry x="50" y="220" width="30" height="60" as="geometry" />
        </mxCell>
        <mxCell id="VPNJ5BdsMGF62lAtjRaV-7" style="rounded=0;orthogonalLoop=1;jettySize=auto;html=1;exitX=0.5;exitY=0.5;exitDx=0;exitDy=0;exitPerimeter=0;entryX=1;entryY=0.5;entryDx=0;entryDy=0;" edge="1" parent="1" source="VPNJ5BdsMGF62lAtjRaV-2" target="DzadTvI9jKIysKQDD1np-1">
          <mxGeometry relative="1" as="geometry" />
        </mxCell>
        <mxCell id="vc-dIt79QZDcnwgyk6DP-5" style="rounded=0;orthogonalLoop=1;jettySize=auto;html=1;exitX=0.5;exitY=0.5;exitDx=0;exitDy=0;exitPerimeter=0;entryX=1;entryY=0.5;entryDx=0;entryDy=0;" edge="1" parent="1" source="VPNJ5BdsMGF62lAtjRaV-2" target="DzadTvI9jKIysKQDD1np-2">
          <mxGeometry relative="1" as="geometry" />
        </mxCell>
        <mxCell id="vc-dIt79QZDcnwgyk6DP-10" style="rounded=0;orthogonalLoop=1;jettySize=auto;html=1;exitX=0.5;exitY=0.5;exitDx=0;exitDy=0;exitPerimeter=0;entryX=1;entryY=0.5;entryDx=0;entryDy=0;" edge="1" parent="1" source="VPNJ5BdsMGF62lAtjRaV-2" target="DzadTvI9jKIysKQDD1np-4">
          <mxGeometry relative="1" as="geometry" />
        </mxCell>
        <mxCell id="VPNJ5BdsMGF62lAtjRaV-2" value="Empleado" style="shape=umlActor;verticalLabelPosition=bottom;verticalAlign=top;html=1;outlineConnect=0;" vertex="1" parent="1">
          <mxGeometry x="460" y="220" width="30" height="60" as="geometry" />
        </mxCell>
        <mxCell id="vc-dIt79QZDcnwgyk6DP-2" value="" style="swimlane;startSize=0;" vertex="1" parent="1">
          <mxGeometry x="160" y="50" width="200" height="360" as="geometry">
            <mxRectangle x="160" y="50" width="50" height="40" as="alternateBounds" />
          </mxGeometry>
        </mxCell>
        <mxCell id="vc-dIt79QZDcnwgyk6DP-3" value="Login" style="text;html=1;align=center;verticalAlign=middle;resizable=0;points=[];autosize=1;strokeColor=none;fillColor=none;strokeWidth=1;fontSize=15;" vertex="1" parent="vc-dIt79QZDcnwgyk6DP-2">
          <mxGeometry x="20" width="60" height="30" as="geometry" />
        </mxCell>
        <mxCell id="vc-dIt79QZDcnwgyk6DP-13" value="&amp;lt;&amp;lt;extend&amp;gt;&amp;gt;" style="html=1;verticalAlign=bottom;labelBackgroundColor=none;endArrow=open;endFill=0;dashed=1;rounded=0;fontFamily=Helvetica;fontSize=12;fontColor=default;autosize=1;resizable=0;entryX=1;entryY=0;entryDx=0;entryDy=0;" edge="1" parent="vc-dIt79QZDcnwgyk6DP-2" target="DzadTvI9jKIysKQDD1np-4">
          <mxGeometry x="0.9054" y="14" width="160" relative="1" as="geometry">
            <mxPoint x="100" y="220" as="sourcePoint" />
            <mxPoint x="260" y="220" as="targetPoint" />
            <mxPoint as="offset" />
          </mxGeometry>
        </mxCell>
        <mxCell id="vc-dIt79QZDcnwgyk6DP-4" value="&amp;lt;&amp;lt;include&amp;gt;&amp;gt;" style="html=1;verticalAlign=bottom;labelBackgroundColor=none;endArrow=open;endFill=0;dashed=1;rounded=0;exitX=0.5;exitY=1;exitDx=0;exitDy=0;entryX=1;entryY=0;entryDx=0;entryDy=0;" edge="1" parent="1" source="DzadTvI9jKIysKQDD1np-1" target="DzadTvI9jKIysKQDD1np-2">
          <mxGeometry x="0.3333" y="20" width="160" relative="1" as="geometry">
            <mxPoint x="250" y="160" as="sourcePoint" />
            <mxPoint x="410" y="160" as="targetPoint" />
            <mxPoint as="offset" />
          </mxGeometry>
        </mxCell>
        <mxCell id="vc-dIt79QZDcnwgyk6DP-9" style="edgeStyle=orthogonalEdgeStyle;rounded=0;orthogonalLoop=1;jettySize=auto;html=1;exitX=0.5;exitY=1;exitDx=0;exitDy=0;" edge="1" parent="1" source="vc-dIt79QZDcnwgyk6DP-2" target="vc-dIt79QZDcnwgyk6DP-2">
          <mxGeometry relative="1" as="geometry" />
        </mxCell>
      </root>
    </mxGraphModel>
  </diagram>
  <diagram id="Ua3cDjljO6cO7GIYKqKf" name="Inicio">
    <mxGraphModel dx="872" dy="529" grid="1" gridSize="10" guides="1" tooltips="1" connect="1" arrows="1" fold="1" page="1" pageScale="1" pageWidth="827" pageHeight="1169" math="0" shadow="0">
      <root>
        <mxCell id="0" />
        <mxCell id="1" parent="0" />
        <mxCell id="MKGRKb2radgXHDbRp514-1" value="Pagina Principal" style="ellipse;whiteSpace=wrap;html=1;" parent="1" vertex="1">
          <mxGeometry x="300" y="320" width="120" height="80" as="geometry" />
        </mxCell>
        <mxCell id="MKGRKb2radgXHDbRp514-2" value="Visualizar Productos Bajos en Stock" style="ellipse;whiteSpace=wrap;html=1;dashed=1;" parent="1" vertex="1">
          <mxGeometry x="300" y="430" width="120" height="80" as="geometry" />
        </mxCell>
        <mxCell id="MKGRKb2radgXHDbRp514-4" value="" style="swimlane;startSize=0;" parent="1" vertex="1">
          <mxGeometry x="260" y="290" width="200" height="460" as="geometry">
            <mxRectangle x="160" y="50" width="50" height="40" as="alternateBounds" />
          </mxGeometry>
        </mxCell>
        <mxCell id="MKGRKb2radgXHDbRp514-5" value="Inicio" style="text;html=1;align=center;verticalAlign=middle;resizable=0;points=[];autosize=1;strokeColor=none;fillColor=none;strokeWidth=1;fontSize=15;" parent="MKGRKb2radgXHDbRp514-4" vertex="1">
          <mxGeometry x="20" width="60" height="30" as="geometry" />
        </mxCell>
        <mxCell id="MhRC4a2pN01qhtPRUuSU-12" value="Acceder al Menú" style="ellipse;whiteSpace=wrap;html=1;dashed=1;" parent="MKGRKb2radgXHDbRp514-4" vertex="1">
          <mxGeometry x="40" y="240" width="120" height="80" as="geometry" />
        </mxCell>
        <mxCell id="MhRC4a2pN01qhtPRUuSU-14" value="Cambiar de Página" style="ellipse;whiteSpace=wrap;html=1;dashed=1;" parent="MKGRKb2radgXHDbRp514-4" vertex="1">
          <mxGeometry x="40" y="360" width="120" height="80" as="geometry" />
        </mxCell>
        <mxCell id="MhRC4a2pN01qhtPRUuSU-16" value="&amp;lt;&amp;lt;extend&amp;gt;&amp;gt;" style="html=1;verticalAlign=bottom;labelBackgroundColor=none;endArrow=open;endFill=0;dashed=1;rounded=0;fontFamily=Helvetica;fontSize=12;fontColor=default;autosize=1;resizable=0;exitX=0.5;exitY=1;exitDx=0;exitDy=0;entryX=1;entryY=0;entryDx=0;entryDy=0;" parent="MKGRKb2radgXHDbRp514-4" source="MhRC4a2pN01qhtPRUuSU-12" target="MhRC4a2pN01qhtPRUuSU-14" edge="1">
          <mxGeometry x="0.6416" y="20" width="160" relative="1" as="geometry">
            <mxPoint x="110" y="320" as="sourcePoint" />
            <mxPoint x="270" y="320" as="targetPoint" />
            <mxPoint as="offset" />
          </mxGeometry>
        </mxCell>
        <mxCell id="MKGRKb2radgXHDbRp514-7" value="&amp;lt;&amp;lt;include&amp;gt;&amp;gt;" style="html=1;verticalAlign=bottom;labelBackgroundColor=none;endArrow=open;endFill=0;dashed=1;rounded=0;exitX=0.5;exitY=1;exitDx=0;exitDy=0;entryX=1;entryY=0;entryDx=0;entryDy=0;" parent="1" source="MKGRKb2radgXHDbRp514-1" target="MKGRKb2radgXHDbRp514-2" edge="1">
          <mxGeometry x="0.3333" y="20" width="160" relative="1" as="geometry">
            <mxPoint x="350" y="400" as="sourcePoint" />
            <mxPoint x="510" y="400" as="targetPoint" />
            <mxPoint as="offset" />
          </mxGeometry>
        </mxCell>
        <mxCell id="MKGRKb2radgXHDbRp514-8" style="edgeStyle=orthogonalEdgeStyle;rounded=0;orthogonalLoop=1;jettySize=auto;html=1;exitX=0.5;exitY=1;exitDx=0;exitDy=0;" parent="1" source="MKGRKb2radgXHDbRp514-4" target="MKGRKb2radgXHDbRp514-4" edge="1">
          <mxGeometry relative="1" as="geometry" />
        </mxCell>
        <mxCell id="MhRC4a2pN01qhtPRUuSU-3" style="rounded=0;orthogonalLoop=1;jettySize=auto;html=1;exitX=0.5;exitY=0.5;exitDx=0;exitDy=0;exitPerimeter=0;entryX=0;entryY=0.5;entryDx=0;entryDy=0;fontFamily=Helvetica;fontSize=12;fontColor=default;autosize=1;resizable=0;" parent="1" source="MhRC4a2pN01qhtPRUuSU-1" target="MKGRKb2radgXHDbRp514-1" edge="1">
          <mxGeometry relative="1" as="geometry" />
        </mxCell>
        <mxCell id="MhRC4a2pN01qhtPRUuSU-4" style="rounded=0;orthogonalLoop=1;jettySize=auto;html=1;exitX=0.5;exitY=0.5;exitDx=0;exitDy=0;exitPerimeter=0;entryX=0;entryY=0.5;entryDx=0;entryDy=0;fontFamily=Helvetica;fontSize=12;fontColor=default;autosize=1;resizable=0;" parent="1" source="MhRC4a2pN01qhtPRUuSU-1" target="MKGRKb2radgXHDbRp514-2" edge="1">
          <mxGeometry relative="1" as="geometry" />
        </mxCell>
        <mxCell id="MhRC4a2pN01qhtPRUuSU-19" style="rounded=0;orthogonalLoop=1;jettySize=auto;html=1;exitX=0.5;exitY=0.5;exitDx=0;exitDy=0;exitPerimeter=0;entryX=0;entryY=0.5;entryDx=0;entryDy=0;fontFamily=Helvetica;fontSize=12;fontColor=default;autosize=1;resizable=0;" parent="1" source="MhRC4a2pN01qhtPRUuSU-1" target="MhRC4a2pN01qhtPRUuSU-14" edge="1">
          <mxGeometry relative="1" as="geometry" />
        </mxCell>
        <mxCell id="MhRC4a2pN01qhtPRUuSU-20" style="rounded=0;orthogonalLoop=1;jettySize=auto;html=1;exitX=0.5;exitY=0.5;exitDx=0;exitDy=0;exitPerimeter=0;entryX=0;entryY=0.5;entryDx=0;entryDy=0;fontFamily=Helvetica;fontSize=12;fontColor=default;autosize=1;resizable=0;" parent="1" source="MhRC4a2pN01qhtPRUuSU-1" target="MhRC4a2pN01qhtPRUuSU-12" edge="1">
          <mxGeometry relative="1" as="geometry" />
        </mxCell>
        <mxCell id="MhRC4a2pN01qhtPRUuSU-1" value="Administrador" style="shape=umlActor;verticalLabelPosition=bottom;verticalAlign=top;html=1;outlineConnect=0;" parent="1" vertex="1">
          <mxGeometry x="140" y="450" width="30" height="60" as="geometry" />
        </mxCell>
        <mxCell id="MhRC4a2pN01qhtPRUuSU-5" style="rounded=0;orthogonalLoop=1;jettySize=auto;html=1;exitX=0.5;exitY=0.5;exitDx=0;exitDy=0;exitPerimeter=0;entryX=1;entryY=0.5;entryDx=0;entryDy=0;fontFamily=Helvetica;fontSize=12;fontColor=default;autosize=1;resizable=0;" parent="1" source="MhRC4a2pN01qhtPRUuSU-2" target="MKGRKb2radgXHDbRp514-2" edge="1">
          <mxGeometry relative="1" as="geometry" />
        </mxCell>
        <mxCell id="MhRC4a2pN01qhtPRUuSU-6" style="rounded=0;orthogonalLoop=1;jettySize=auto;html=1;exitX=0.5;exitY=0.5;exitDx=0;exitDy=0;exitPerimeter=0;entryX=1;entryY=0.5;entryDx=0;entryDy=0;fontFamily=Helvetica;fontSize=12;fontColor=default;autosize=1;resizable=0;" parent="1" source="MhRC4a2pN01qhtPRUuSU-2" target="MKGRKb2radgXHDbRp514-1" edge="1">
          <mxGeometry relative="1" as="geometry" />
        </mxCell>
        <mxCell id="MhRC4a2pN01qhtPRUuSU-17" style="rounded=0;orthogonalLoop=1;jettySize=auto;html=1;exitX=0.5;exitY=0.5;exitDx=0;exitDy=0;exitPerimeter=0;entryX=1;entryY=0.5;entryDx=0;entryDy=0;fontFamily=Helvetica;fontSize=12;fontColor=default;autosize=1;resizable=0;" parent="1" source="MhRC4a2pN01qhtPRUuSU-2" target="MhRC4a2pN01qhtPRUuSU-12" edge="1">
          <mxGeometry relative="1" as="geometry" />
        </mxCell>
        <mxCell id="MhRC4a2pN01qhtPRUuSU-18" style="rounded=0;orthogonalLoop=1;jettySize=auto;html=1;exitX=0.5;exitY=0.5;exitDx=0;exitDy=0;exitPerimeter=0;entryX=1;entryY=0.5;entryDx=0;entryDy=0;fontFamily=Helvetica;fontSize=12;fontColor=default;autosize=1;resizable=0;" parent="1" source="MhRC4a2pN01qhtPRUuSU-2" target="MhRC4a2pN01qhtPRUuSU-14" edge="1">
          <mxGeometry relative="1" as="geometry" />
        </mxCell>
        <mxCell id="MhRC4a2pN01qhtPRUuSU-2" value="Administrador" style="shape=umlActor;verticalLabelPosition=bottom;verticalAlign=top;html=1;outlineConnect=0;" parent="1" vertex="1">
          <mxGeometry x="540" y="450" width="30" height="60" as="geometry" />
        </mxCell>
        <mxCell id="MhRC4a2pN01qhtPRUuSU-13" value="&amp;lt;&amp;lt;include&amp;gt;&amp;gt;" style="html=1;verticalAlign=bottom;labelBackgroundColor=none;endArrow=open;endFill=0;dashed=1;rounded=0;exitX=0.5;exitY=1;exitDx=0;exitDy=0;entryX=1;entryY=0;entryDx=0;entryDy=0;" parent="1" source="MKGRKb2radgXHDbRp514-2" target="MhRC4a2pN01qhtPRUuSU-12" edge="1">
          <mxGeometry x="0.9642" y="14" width="160" relative="1" as="geometry">
            <mxPoint x="500" y="430" as="sourcePoint" />
            <mxPoint x="542" y="472" as="targetPoint" />
            <mxPoint as="offset" />
            <Array as="points" />
          </mxGeometry>
        </mxCell>
      </root>
    </mxGraphModel>
  </diagram>
  <diagram id="dtgJ7ioMj8VED_2iXmuZ" name="Facturacion">
    <mxGraphModel dx="872" dy="529" grid="1" gridSize="10" guides="1" tooltips="1" connect="1" arrows="1" fold="1" page="1" pageScale="1" pageWidth="827" pageHeight="1169" math="0" shadow="0">
      <root>
        <mxCell id="0" />
        <mxCell id="1" parent="0" />
        <mxCell id="VTwjm0tzNqSN2-IQcjPi-1" value="Acceder a Facturación" style="ellipse;whiteSpace=wrap;html=1;" vertex="1" parent="1">
          <mxGeometry x="340" y="90" width="120" height="80" as="geometry" />
        </mxCell>
        <mxCell id="VTwjm0tzNqSN2-IQcjPi-2" value="Visualizar Listado de Facturas" style="ellipse;whiteSpace=wrap;html=1;dashed=1;" vertex="1" parent="1">
          <mxGeometry x="340" y="200" width="120" height="80" as="geometry" />
        </mxCell>
        <mxCell id="VTwjm0tzNqSN2-IQcjPi-3" value="" style="swimlane;startSize=0;" vertex="1" parent="1">
          <mxGeometry x="300" y="60" width="270" height="590" as="geometry">
            <mxRectangle x="160" y="50" width="50" height="40" as="alternateBounds" />
          </mxGeometry>
        </mxCell>
        <mxCell id="VTwjm0tzNqSN2-IQcjPi-4" value="Facturación" style="text;html=1;align=center;verticalAlign=middle;resizable=0;points=[];autosize=1;strokeColor=none;fillColor=none;strokeWidth=1;fontSize=15;" vertex="1" parent="VTwjm0tzNqSN2-IQcjPi-3">
          <mxGeometry width="100" height="30" as="geometry" />
        </mxCell>
        <mxCell id="VTwjm0tzNqSN2-IQcjPi-5" value="Crear y Guardar Facturas" style="ellipse;whiteSpace=wrap;html=1;dashed=1;" vertex="1" parent="VTwjm0tzNqSN2-IQcjPi-3">
          <mxGeometry x="40" y="240" width="120" height="80" as="geometry" />
        </mxCell>
        <mxCell id="VTwjm0tzNqSN2-IQcjPi-6" value="Eliminar Facturas" style="ellipse;whiteSpace=wrap;html=1;dashed=1;" vertex="1" parent="VTwjm0tzNqSN2-IQcjPi-3">
          <mxGeometry x="40" y="360" width="120" height="80" as="geometry" />
        </mxCell>
        <mxCell id="VTwjm0tzNqSN2-IQcjPi-7" value="&amp;lt;&amp;lt;extend&amp;gt;&amp;gt;" style="html=1;verticalAlign=bottom;labelBackgroundColor=none;endArrow=open;endFill=0;dashed=1;rounded=0;fontFamily=Helvetica;fontSize=12;fontColor=default;autosize=1;resizable=0;exitX=0.5;exitY=1;exitDx=0;exitDy=0;entryX=1;entryY=0;entryDx=0;entryDy=0;" edge="1" parent="VTwjm0tzNqSN2-IQcjPi-3" source="VTwjm0tzNqSN2-IQcjPi-5" target="VTwjm0tzNqSN2-IQcjPi-6">
          <mxGeometry x="0.6416" y="20" width="160" relative="1" as="geometry">
            <mxPoint x="110" y="320" as="sourcePoint" />
            <mxPoint x="270" y="320" as="targetPoint" />
            <mxPoint as="offset" />
          </mxGeometry>
        </mxCell>
        <mxCell id="VTwjm0tzNqSN2-IQcjPi-16" value="&amp;lt;&amp;lt;extend&amp;gt;&amp;gt;" style="html=1;verticalAlign=bottom;labelBackgroundColor=none;endArrow=open;endFill=0;dashed=1;rounded=0;fontFamily=Helvetica;fontSize=12;fontColor=default;autosize=1;resizable=0;entryX=1;entryY=0;entryDx=0;entryDy=0;" edge="1" parent="VTwjm0tzNqSN2-IQcjPi-3" target="VTwjm0tzNqSN2-IQcjPi-5">
          <mxGeometry x="1" y="21" width="160" relative="1" as="geometry">
            <mxPoint x="100" y="220" as="sourcePoint" />
            <mxPoint x="260" y="220" as="targetPoint" />
            <mxPoint x="5" y="5" as="offset" />
          </mxGeometry>
        </mxCell>
        <mxCell id="VTwjm0tzNqSN2-IQcjPi-17" value="Actualizar Facturas" style="ellipse;whiteSpace=wrap;html=1;dashed=1;" vertex="1" parent="VTwjm0tzNqSN2-IQcjPi-3">
          <mxGeometry x="40" y="480" width="120" height="80" as="geometry" />
        </mxCell>
        <mxCell id="VTwjm0tzNqSN2-IQcjPi-18" value="&amp;lt;&amp;lt;extend&amp;gt;&amp;gt;" style="html=1;verticalAlign=bottom;labelBackgroundColor=none;endArrow=open;endFill=0;dashed=1;rounded=0;fontFamily=Helvetica;fontSize=12;fontColor=default;autosize=1;resizable=0;exitX=0.5;exitY=1;exitDx=0;exitDy=0;entryX=1;entryY=0;entryDx=0;entryDy=0;" edge="1" parent="VTwjm0tzNqSN2-IQcjPi-3" target="VTwjm0tzNqSN2-IQcjPi-17">
          <mxGeometry x="0.6416" y="20" width="160" relative="1" as="geometry">
            <mxPoint x="100" y="440" as="sourcePoint" />
            <mxPoint x="270" y="440" as="targetPoint" />
            <mxPoint as="offset" />
          </mxGeometry>
        </mxCell>
        <mxCell id="VTwjm0tzNqSN2-IQcjPi-20" value="&amp;lt;&amp;lt;extend&amp;gt;&amp;gt;" style="html=1;verticalAlign=bottom;labelBackgroundColor=none;endArrow=open;endFill=0;dashed=1;rounded=0;fontFamily=Helvetica;fontSize=12;fontColor=default;autosize=1;resizable=0;entryX=1;entryY=0.5;entryDx=0;entryDy=0;" edge="1" parent="VTwjm0tzNqSN2-IQcjPi-3" target="VTwjm0tzNqSN2-IQcjPi-17">
          <mxGeometry x="0.0072" y="30" width="160" relative="1" as="geometry">
            <mxPoint x="160" y="280" as="sourcePoint" />
            <mxPoint x="320" y="280" as="targetPoint" />
            <Array as="points">
              <mxPoint x="200" y="330" />
              <mxPoint x="200" y="460" />
            </Array>
            <mxPoint as="offset" />
          </mxGeometry>
        </mxCell>
        <mxCell id="VTwjm0tzNqSN2-IQcjPi-8" value="&amp;lt;&amp;lt;include&amp;gt;&amp;gt;" style="html=1;verticalAlign=bottom;labelBackgroundColor=none;endArrow=open;endFill=0;dashed=1;rounded=0;exitX=0.5;exitY=1;exitDx=0;exitDy=0;entryX=1;entryY=0;entryDx=0;entryDy=0;" edge="1" parent="1" source="VTwjm0tzNqSN2-IQcjPi-1" target="VTwjm0tzNqSN2-IQcjPi-2">
          <mxGeometry x="0.3333" y="20" width="160" relative="1" as="geometry">
            <mxPoint x="390" y="170" as="sourcePoint" />
            <mxPoint x="550" y="170" as="targetPoint" />
            <mxPoint as="offset" />
          </mxGeometry>
        </mxCell>
        <mxCell id="VTwjm0tzNqSN2-IQcjPi-9" style="edgeStyle=orthogonalEdgeStyle;rounded=0;orthogonalLoop=1;jettySize=auto;html=1;exitX=0.5;exitY=1;exitDx=0;exitDy=0;" edge="1" parent="1" source="VTwjm0tzNqSN2-IQcjPi-3" target="VTwjm0tzNqSN2-IQcjPi-3">
          <mxGeometry relative="1" as="geometry" />
        </mxCell>
        <mxCell id="VTwjm0tzNqSN2-IQcjPi-10" style="rounded=0;orthogonalLoop=1;jettySize=auto;html=1;exitX=0.5;exitY=0.5;exitDx=0;exitDy=0;exitPerimeter=0;entryX=0;entryY=0.5;entryDx=0;entryDy=0;fontFamily=Helvetica;fontSize=12;fontColor=default;autosize=1;resizable=0;" edge="1" parent="1" source="VTwjm0tzNqSN2-IQcjPi-14" target="VTwjm0tzNqSN2-IQcjPi-1">
          <mxGeometry relative="1" as="geometry" />
        </mxCell>
        <mxCell id="VTwjm0tzNqSN2-IQcjPi-11" style="rounded=0;orthogonalLoop=1;jettySize=auto;html=1;exitX=0.5;exitY=0.5;exitDx=0;exitDy=0;exitPerimeter=0;entryX=0;entryY=0.5;entryDx=0;entryDy=0;fontFamily=Helvetica;fontSize=12;fontColor=default;autosize=1;resizable=0;" edge="1" parent="1" source="VTwjm0tzNqSN2-IQcjPi-14" target="VTwjm0tzNqSN2-IQcjPi-2">
          <mxGeometry relative="1" as="geometry" />
        </mxCell>
        <mxCell id="VTwjm0tzNqSN2-IQcjPi-12" style="rounded=0;orthogonalLoop=1;jettySize=auto;html=1;exitX=0.5;exitY=0.5;exitDx=0;exitDy=0;exitPerimeter=0;entryX=0;entryY=0.5;entryDx=0;entryDy=0;fontFamily=Helvetica;fontSize=12;fontColor=default;autosize=1;resizable=0;" edge="1" parent="1" source="VTwjm0tzNqSN2-IQcjPi-14" target="VTwjm0tzNqSN2-IQcjPi-6">
          <mxGeometry relative="1" as="geometry" />
        </mxCell>
        <mxCell id="VTwjm0tzNqSN2-IQcjPi-13" style="rounded=0;orthogonalLoop=1;jettySize=auto;html=1;exitX=0.5;exitY=0.5;exitDx=0;exitDy=0;exitPerimeter=0;entryX=0;entryY=0.5;entryDx=0;entryDy=0;fontFamily=Helvetica;fontSize=12;fontColor=default;autosize=1;resizable=0;" edge="1" parent="1" source="VTwjm0tzNqSN2-IQcjPi-14" target="VTwjm0tzNqSN2-IQcjPi-5">
          <mxGeometry relative="1" as="geometry" />
        </mxCell>
        <mxCell id="VTwjm0tzNqSN2-IQcjPi-19" style="rounded=0;orthogonalLoop=1;jettySize=auto;html=1;exitX=0.5;exitY=0.5;exitDx=0;exitDy=0;exitPerimeter=0;entryX=0;entryY=0.5;entryDx=0;entryDy=0;fontFamily=Helvetica;fontSize=12;fontColor=default;autosize=1;resizable=0;" edge="1" parent="1" source="VTwjm0tzNqSN2-IQcjPi-14" target="VTwjm0tzNqSN2-IQcjPi-17">
          <mxGeometry relative="1" as="geometry" />
        </mxCell>
        <mxCell id="VTwjm0tzNqSN2-IQcjPi-14" value="Administrador" style="shape=umlActor;verticalLabelPosition=bottom;verticalAlign=top;html=1;outlineConnect=0;" vertex="1" parent="1">
          <mxGeometry x="180" y="220" width="30" height="60" as="geometry" />
        </mxCell>
      </root>
    </mxGraphModel>
  </diagram>
  <diagram id="cDpxYPDUgG7CrjX95utH" name="Inventario">
    <mxGraphModel dx="872" dy="529" grid="1" gridSize="10" guides="1" tooltips="1" connect="1" arrows="1" fold="1" page="1" pageScale="1" pageWidth="827" pageHeight="1169" math="0" shadow="0">
      <root>
        <mxCell id="0" />
        <mxCell id="1" parent="0" />
        <mxCell id="l6vTsv7t0u0CCYKFwhCT-3" value="" style="swimlane;startSize=0;" vertex="1" parent="1">
          <mxGeometry x="238.5" y="70" width="350" height="600" as="geometry">
            <mxRectangle x="160" y="50" width="50" height="40" as="alternateBounds" />
          </mxGeometry>
        </mxCell>
        <mxCell id="l6vTsv7t0u0CCYKFwhCT-4" value="Inventario" style="text;html=1;align=center;verticalAlign=middle;resizable=0;points=[];autosize=1;strokeColor=none;fillColor=none;strokeWidth=1;fontSize=15;" vertex="1" parent="l6vTsv7t0u0CCYKFwhCT-3">
          <mxGeometry x="5" width="90" height="30" as="geometry" />
        </mxCell>
        <mxCell id="l6vTsv7t0u0CCYKFwhCT-1" value="Acceder a Inventario" style="ellipse;whiteSpace=wrap;html=1;" vertex="1" parent="l6vTsv7t0u0CCYKFwhCT-3">
          <mxGeometry x="110" y="30" width="120" height="80" as="geometry" />
        </mxCell>
        <mxCell id="l6vTsv7t0u0CCYKFwhCT-2" value="Visualizar Stock" style="ellipse;whiteSpace=wrap;html=1;dashed=1;" vertex="1" parent="l6vTsv7t0u0CCYKFwhCT-3">
          <mxGeometry x="110" y="140" width="120" height="80" as="geometry" />
        </mxCell>
        <mxCell id="l6vTsv7t0u0CCYKFwhCT-5" value="Agregar Productos" style="ellipse;whiteSpace=wrap;html=1;dashed=1;" vertex="1" parent="l6vTsv7t0u0CCYKFwhCT-3">
          <mxGeometry x="110" y="240" width="120" height="80" as="geometry" />
        </mxCell>
        <mxCell id="l6vTsv7t0u0CCYKFwhCT-6" value="Eliminar Productos" style="ellipse;whiteSpace=wrap;html=1;dashed=1;" vertex="1" parent="l6vTsv7t0u0CCYKFwhCT-3">
          <mxGeometry x="110" y="360" width="120" height="80" as="geometry" />
        </mxCell>
        <mxCell id="l6vTsv7t0u0CCYKFwhCT-7" value="&amp;lt;&amp;lt;extend&amp;gt;&amp;gt;" style="html=1;verticalAlign=bottom;labelBackgroundColor=none;endArrow=open;endFill=0;dashed=1;rounded=0;fontFamily=Helvetica;fontSize=12;fontColor=default;autosize=1;resizable=0;exitX=0.5;exitY=1;exitDx=0;exitDy=0;entryX=1;entryY=0;entryDx=0;entryDy=0;" edge="1" parent="l6vTsv7t0u0CCYKFwhCT-3" source="l6vTsv7t0u0CCYKFwhCT-5" target="l6vTsv7t0u0CCYKFwhCT-6">
          <mxGeometry x="0.6416" y="20" width="160" relative="1" as="geometry">
            <mxPoint x="180" y="320" as="sourcePoint" />
            <mxPoint x="340" y="320" as="targetPoint" />
            <mxPoint as="offset" />
          </mxGeometry>
        </mxCell>
        <mxCell id="l6vTsv7t0u0CCYKFwhCT-8" value="&amp;lt;&amp;lt;extend&amp;gt;&amp;gt;" style="html=1;verticalAlign=bottom;labelBackgroundColor=none;endArrow=open;endFill=0;dashed=1;rounded=0;fontFamily=Helvetica;fontSize=12;fontColor=default;autosize=1;resizable=0;entryX=1;entryY=0;entryDx=0;entryDy=0;" edge="1" parent="l6vTsv7t0u0CCYKFwhCT-3" target="l6vTsv7t0u0CCYKFwhCT-5">
          <mxGeometry x="1" y="21" width="160" relative="1" as="geometry">
            <mxPoint x="170" y="220" as="sourcePoint" />
            <mxPoint x="330" y="220" as="targetPoint" />
            <mxPoint x="5" y="5" as="offset" />
          </mxGeometry>
        </mxCell>
        <mxCell id="l6vTsv7t0u0CCYKFwhCT-9" value="Actualizar Prodcutos" style="ellipse;whiteSpace=wrap;html=1;dashed=1;" vertex="1" parent="l6vTsv7t0u0CCYKFwhCT-3">
          <mxGeometry x="110" y="480" width="120" height="80" as="geometry" />
        </mxCell>
        <mxCell id="l6vTsv7t0u0CCYKFwhCT-10" value="&amp;lt;&amp;lt;extend&amp;gt;&amp;gt;" style="html=1;verticalAlign=bottom;labelBackgroundColor=none;endArrow=open;endFill=0;dashed=1;rounded=0;fontFamily=Helvetica;fontSize=12;fontColor=default;autosize=1;resizable=0;exitX=0.5;exitY=1;exitDx=0;exitDy=0;entryX=1;entryY=0;entryDx=0;entryDy=0;" edge="1" parent="l6vTsv7t0u0CCYKFwhCT-3" target="l6vTsv7t0u0CCYKFwhCT-9">
          <mxGeometry x="0.6416" y="20" width="160" relative="1" as="geometry">
            <mxPoint x="170" y="440" as="sourcePoint" />
            <mxPoint x="340" y="440" as="targetPoint" />
            <mxPoint as="offset" />
          </mxGeometry>
        </mxCell>
        <mxCell id="l6vTsv7t0u0CCYKFwhCT-11" value="&amp;lt;&amp;lt;extend&amp;gt;&amp;gt;" style="html=1;verticalAlign=bottom;labelBackgroundColor=none;endArrow=open;endFill=0;dashed=1;rounded=0;fontFamily=Helvetica;fontSize=12;fontColor=default;autosize=1;resizable=0;entryX=1;entryY=0.5;entryDx=0;entryDy=0;" edge="1" parent="l6vTsv7t0u0CCYKFwhCT-3" target="l6vTsv7t0u0CCYKFwhCT-9">
          <mxGeometry x="-0.1431" y="30" width="160" relative="1" as="geometry">
            <mxPoint x="230" y="280" as="sourcePoint" />
            <mxPoint x="390" y="280" as="targetPoint" />
            <Array as="points">
              <mxPoint x="270" y="330" />
              <mxPoint x="270" y="460" />
            </Array>
            <mxPoint as="offset" />
          </mxGeometry>
        </mxCell>
        <mxCell id="l6vTsv7t0u0CCYKFwhCT-12" value="&amp;lt;&amp;lt;include&amp;gt;&amp;gt;" style="html=1;verticalAlign=bottom;labelBackgroundColor=none;endArrow=open;endFill=0;dashed=1;rounded=0;exitX=0.5;exitY=1;exitDx=0;exitDy=0;entryX=1;entryY=0;entryDx=0;entryDy=0;" edge="1" parent="l6vTsv7t0u0CCYKFwhCT-3" source="l6vTsv7t0u0CCYKFwhCT-1" target="l6vTsv7t0u0CCYKFwhCT-2">
          <mxGeometry x="0.3333" y="20" width="160" relative="1" as="geometry">
            <mxPoint x="190" y="110" as="sourcePoint" />
            <mxPoint x="350" y="110" as="targetPoint" />
            <mxPoint as="offset" />
          </mxGeometry>
        </mxCell>
        <mxCell id="l6vTsv7t0u0CCYKFwhCT-13" style="edgeStyle=orthogonalEdgeStyle;rounded=0;orthogonalLoop=1;jettySize=auto;html=1;exitX=0.5;exitY=1;exitDx=0;exitDy=0;" edge="1" parent="1" source="l6vTsv7t0u0CCYKFwhCT-3" target="l6vTsv7t0u0CCYKFwhCT-3">
          <mxGeometry relative="1" as="geometry" />
        </mxCell>
        <mxCell id="l6vTsv7t0u0CCYKFwhCT-14" style="rounded=0;orthogonalLoop=1;jettySize=auto;html=1;exitX=0.5;exitY=0.5;exitDx=0;exitDy=0;exitPerimeter=0;entryX=0;entryY=0.5;entryDx=0;entryDy=0;fontFamily=Helvetica;fontSize=12;fontColor=default;autosize=1;resizable=0;" edge="1" parent="1" source="l6vTsv7t0u0CCYKFwhCT-19" target="l6vTsv7t0u0CCYKFwhCT-1">
          <mxGeometry relative="1" as="geometry" />
        </mxCell>
        <mxCell id="l6vTsv7t0u0CCYKFwhCT-15" style="rounded=0;orthogonalLoop=1;jettySize=auto;html=1;exitX=0.5;exitY=0.5;exitDx=0;exitDy=0;exitPerimeter=0;entryX=0;entryY=0.5;entryDx=0;entryDy=0;fontFamily=Helvetica;fontSize=12;fontColor=default;autosize=1;resizable=0;" edge="1" parent="1" source="l6vTsv7t0u0CCYKFwhCT-19" target="l6vTsv7t0u0CCYKFwhCT-2">
          <mxGeometry relative="1" as="geometry" />
        </mxCell>
        <mxCell id="l6vTsv7t0u0CCYKFwhCT-16" style="rounded=0;orthogonalLoop=1;jettySize=auto;html=1;exitX=0.5;exitY=0.5;exitDx=0;exitDy=0;exitPerimeter=0;entryX=0;entryY=0.5;entryDx=0;entryDy=0;fontFamily=Helvetica;fontSize=12;fontColor=default;autosize=1;resizable=0;" edge="1" parent="1" source="l6vTsv7t0u0CCYKFwhCT-19" target="l6vTsv7t0u0CCYKFwhCT-6">
          <mxGeometry relative="1" as="geometry" />
        </mxCell>
        <mxCell id="l6vTsv7t0u0CCYKFwhCT-17" style="rounded=0;orthogonalLoop=1;jettySize=auto;html=1;exitX=0.5;exitY=0.5;exitDx=0;exitDy=0;exitPerimeter=0;entryX=0;entryY=0.5;entryDx=0;entryDy=0;fontFamily=Helvetica;fontSize=12;fontColor=default;autosize=1;resizable=0;" edge="1" parent="1" source="l6vTsv7t0u0CCYKFwhCT-19" target="l6vTsv7t0u0CCYKFwhCT-5">
          <mxGeometry relative="1" as="geometry" />
        </mxCell>
        <mxCell id="l6vTsv7t0u0CCYKFwhCT-18" style="rounded=0;orthogonalLoop=1;jettySize=auto;html=1;exitX=0.5;exitY=0.5;exitDx=0;exitDy=0;exitPerimeter=0;entryX=0;entryY=0.5;entryDx=0;entryDy=0;fontFamily=Helvetica;fontSize=12;fontColor=default;autosize=1;resizable=0;" edge="1" parent="1" source="l6vTsv7t0u0CCYKFwhCT-19" target="l6vTsv7t0u0CCYKFwhCT-9">
          <mxGeometry relative="1" as="geometry" />
        </mxCell>
        <mxCell id="l6vTsv7t0u0CCYKFwhCT-19" value="Administrador" style="shape=umlActor;verticalLabelPosition=bottom;verticalAlign=top;html=1;outlineConnect=0;" vertex="1" parent="1">
          <mxGeometry x="140" y="380" width="30" height="60" as="geometry" />
        </mxCell>
        <mxCell id="l6vTsv7t0u0CCYKFwhCT-32" style="rounded=0;orthogonalLoop=1;jettySize=auto;html=1;exitX=0.5;exitY=0.5;exitDx=0;exitDy=0;exitPerimeter=0;entryX=1;entryY=0.5;entryDx=0;entryDy=0;fontFamily=Helvetica;fontSize=12;fontColor=default;autosize=1;resizable=0;" edge="1" parent="1" source="l6vTsv7t0u0CCYKFwhCT-20" target="l6vTsv7t0u0CCYKFwhCT-1">
          <mxGeometry relative="1" as="geometry" />
        </mxCell>
        <mxCell id="l6vTsv7t0u0CCYKFwhCT-33" style="rounded=0;orthogonalLoop=1;jettySize=auto;html=1;exitX=0.5;exitY=0.5;exitDx=0;exitDy=0;exitPerimeter=0;entryX=1;entryY=0.5;entryDx=0;entryDy=0;fontFamily=Helvetica;fontSize=12;fontColor=default;autosize=1;resizable=0;" edge="1" parent="1" source="l6vTsv7t0u0CCYKFwhCT-20" target="l6vTsv7t0u0CCYKFwhCT-2">
          <mxGeometry relative="1" as="geometry" />
        </mxCell>
        <mxCell id="l6vTsv7t0u0CCYKFwhCT-20" value="Empleado" style="shape=umlActor;verticalLabelPosition=bottom;verticalAlign=top;html=1;outlineConnect=0;" vertex="1" parent="1">
          <mxGeometry x="650" y="380" width="30" height="60" as="geometry" />
        </mxCell>
      </root>
    </mxGraphModel>
  </diagram>
  <diagram id="LthuVriC3SmgKaFHqcha" name="Proveedores">
    <mxGraphModel dx="872" dy="529" grid="1" gridSize="10" guides="1" tooltips="1" connect="1" arrows="1" fold="1" page="1" pageScale="1" pageWidth="827" pageHeight="1169" math="0" shadow="0">
      <root>
        <mxCell id="0" />
        <mxCell id="1" parent="0" />
        <mxCell id="1cBgGJHthWsCfQ61GTgz-1" value="Acceder a Proveedores" style="ellipse;whiteSpace=wrap;html=1;" parent="1" vertex="1">
          <mxGeometry x="280" y="50" width="120" height="80" as="geometry" />
        </mxCell>
        <mxCell id="1cBgGJHthWsCfQ61GTgz-2" value="Visualizar Proveedores" style="ellipse;whiteSpace=wrap;html=1;dashed=1;" parent="1" vertex="1">
          <mxGeometry x="280" y="160" width="120" height="80" as="geometry" />
        </mxCell>
        <mxCell id="1cBgGJHthWsCfQ61GTgz-3" value="" style="swimlane;startSize=0;" parent="1" vertex="1">
          <mxGeometry x="240" y="20" width="270" height="590" as="geometry">
            <mxRectangle x="160" y="50" width="50" height="40" as="alternateBounds" />
          </mxGeometry>
        </mxCell>
        <mxCell id="1cBgGJHthWsCfQ61GTgz-4" value="Proveedores" style="text;html=1;align=center;verticalAlign=middle;resizable=0;points=[];autosize=1;strokeColor=none;fillColor=none;strokeWidth=1;fontSize=15;" parent="1cBgGJHthWsCfQ61GTgz-3" vertex="1">
          <mxGeometry x="-5" width="110" height="30" as="geometry" />
        </mxCell>
        <mxCell id="1cBgGJHthWsCfQ61GTgz-5" value="Agregar Proveedor" style="ellipse;whiteSpace=wrap;html=1;dashed=1;" parent="1cBgGJHthWsCfQ61GTgz-3" vertex="1">
          <mxGeometry x="40" y="240" width="120" height="80" as="geometry" />
        </mxCell>
        <mxCell id="1cBgGJHthWsCfQ61GTgz-6" value="Eliminar Proveedor" style="ellipse;whiteSpace=wrap;html=1;dashed=1;" parent="1cBgGJHthWsCfQ61GTgz-3" vertex="1">
          <mxGeometry x="40" y="360" width="120" height="80" as="geometry" />
        </mxCell>
        <mxCell id="1cBgGJHthWsCfQ61GTgz-7" value="&amp;lt;&amp;lt;extend&amp;gt;&amp;gt;" style="html=1;verticalAlign=bottom;labelBackgroundColor=none;endArrow=open;endFill=0;dashed=1;rounded=0;fontFamily=Helvetica;fontSize=12;fontColor=default;autosize=1;resizable=0;exitX=0.5;exitY=1;exitDx=0;exitDy=0;entryX=1;entryY=0;entryDx=0;entryDy=0;" parent="1cBgGJHthWsCfQ61GTgz-3" source="1cBgGJHthWsCfQ61GTgz-5" target="1cBgGJHthWsCfQ61GTgz-6" edge="1">
          <mxGeometry x="0.6416" y="20" width="160" relative="1" as="geometry">
            <mxPoint x="110" y="320" as="sourcePoint" />
            <mxPoint x="270" y="320" as="targetPoint" />
            <mxPoint as="offset" />
          </mxGeometry>
        </mxCell>
        <mxCell id="1cBgGJHthWsCfQ61GTgz-8" value="&amp;lt;&amp;lt;extend&amp;gt;&amp;gt;" style="html=1;verticalAlign=bottom;labelBackgroundColor=none;endArrow=open;endFill=0;dashed=1;rounded=0;fontFamily=Helvetica;fontSize=12;fontColor=default;autosize=1;resizable=0;entryX=1;entryY=0;entryDx=0;entryDy=0;" parent="1cBgGJHthWsCfQ61GTgz-3" target="1cBgGJHthWsCfQ61GTgz-5" edge="1">
          <mxGeometry x="1" y="21" width="160" relative="1" as="geometry">
            <mxPoint x="100" y="220" as="sourcePoint" />
            <mxPoint x="260" y="220" as="targetPoint" />
            <mxPoint x="5" y="5" as="offset" />
          </mxGeometry>
        </mxCell>
        <mxCell id="1cBgGJHthWsCfQ61GTgz-9" value="Actualizar Proveedor" style="ellipse;whiteSpace=wrap;html=1;dashed=1;" parent="1cBgGJHthWsCfQ61GTgz-3" vertex="1">
          <mxGeometry x="40" y="480" width="120" height="80" as="geometry" />
        </mxCell>
        <mxCell id="1cBgGJHthWsCfQ61GTgz-10" value="&amp;lt;&amp;lt;extend&amp;gt;&amp;gt;" style="html=1;verticalAlign=bottom;labelBackgroundColor=none;endArrow=open;endFill=0;dashed=1;rounded=0;fontFamily=Helvetica;fontSize=12;fontColor=default;autosize=1;resizable=0;exitX=0.5;exitY=1;exitDx=0;exitDy=0;entryX=1;entryY=0;entryDx=0;entryDy=0;" parent="1cBgGJHthWsCfQ61GTgz-3" target="1cBgGJHthWsCfQ61GTgz-9" edge="1">
          <mxGeometry x="0.6416" y="20" width="160" relative="1" as="geometry">
            <mxPoint x="100" y="440" as="sourcePoint" />
            <mxPoint x="270" y="440" as="targetPoint" />
            <mxPoint as="offset" />
          </mxGeometry>
        </mxCell>
        <mxCell id="1cBgGJHthWsCfQ61GTgz-11" value="&amp;lt;&amp;lt;extend&amp;gt;&amp;gt;" style="html=1;verticalAlign=bottom;labelBackgroundColor=none;endArrow=open;endFill=0;dashed=1;rounded=0;fontFamily=Helvetica;fontSize=12;fontColor=default;autosize=1;resizable=0;entryX=1;entryY=0.5;entryDx=0;entryDy=0;" parent="1cBgGJHthWsCfQ61GTgz-3" target="1cBgGJHthWsCfQ61GTgz-9" edge="1">
          <mxGeometry x="0.0072" y="30" width="160" relative="1" as="geometry">
            <mxPoint x="160" y="280" as="sourcePoint" />
            <mxPoint x="320" y="280" as="targetPoint" />
            <Array as="points">
              <mxPoint x="200" y="330" />
              <mxPoint x="200" y="460" />
            </Array>
            <mxPoint as="offset" />
          </mxGeometry>
        </mxCell>
        <mxCell id="1cBgGJHthWsCfQ61GTgz-12" value="&amp;lt;&amp;lt;include&amp;gt;&amp;gt;" style="html=1;verticalAlign=bottom;labelBackgroundColor=none;endArrow=open;endFill=0;dashed=1;rounded=0;exitX=0.5;exitY=1;exitDx=0;exitDy=0;entryX=1;entryY=0;entryDx=0;entryDy=0;" parent="1" source="1cBgGJHthWsCfQ61GTgz-1" target="1cBgGJHthWsCfQ61GTgz-2" edge="1">
          <mxGeometry x="0.3333" y="20" width="160" relative="1" as="geometry">
            <mxPoint x="330" y="130" as="sourcePoint" />
            <mxPoint x="490" y="130" as="targetPoint" />
            <mxPoint as="offset" />
          </mxGeometry>
        </mxCell>
        <mxCell id="1cBgGJHthWsCfQ61GTgz-13" style="edgeStyle=orthogonalEdgeStyle;rounded=0;orthogonalLoop=1;jettySize=auto;html=1;exitX=0.5;exitY=1;exitDx=0;exitDy=0;" parent="1" source="1cBgGJHthWsCfQ61GTgz-3" target="1cBgGJHthWsCfQ61GTgz-3" edge="1">
          <mxGeometry relative="1" as="geometry" />
        </mxCell>
        <mxCell id="HevIYOvHFTUUDATsYxTr-4" style="rounded=0;orthogonalLoop=1;jettySize=auto;html=1;exitX=0.5;exitY=0.5;exitDx=0;exitDy=0;exitPerimeter=0;entryX=0;entryY=0.5;entryDx=0;entryDy=0;" parent="1" source="HevIYOvHFTUUDATsYxTr-2" target="1cBgGJHthWsCfQ61GTgz-1" edge="1">
          <mxGeometry relative="1" as="geometry" />
        </mxCell>
        <mxCell id="HevIYOvHFTUUDATsYxTr-6" style="rounded=0;orthogonalLoop=1;jettySize=auto;html=1;exitX=0.5;exitY=0.5;exitDx=0;exitDy=0;exitPerimeter=0;entryX=0;entryY=0.5;entryDx=0;entryDy=0;" parent="1" source="HevIYOvHFTUUDATsYxTr-2" target="1cBgGJHthWsCfQ61GTgz-5" edge="1">
          <mxGeometry relative="1" as="geometry" />
        </mxCell>
        <mxCell id="HevIYOvHFTUUDATsYxTr-7" style="rounded=0;orthogonalLoop=1;jettySize=auto;html=1;exitX=0.5;exitY=0.5;exitDx=0;exitDy=0;exitPerimeter=0;entryX=0;entryY=0.5;entryDx=0;entryDy=0;" parent="1" source="HevIYOvHFTUUDATsYxTr-2" target="1cBgGJHthWsCfQ61GTgz-6" edge="1">
          <mxGeometry relative="1" as="geometry" />
        </mxCell>
        <mxCell id="HevIYOvHFTUUDATsYxTr-8" style="rounded=0;orthogonalLoop=1;jettySize=auto;html=1;exitX=0.5;exitY=0.5;exitDx=0;exitDy=0;exitPerimeter=0;entryX=0;entryY=0.5;entryDx=0;entryDy=0;" parent="1" source="HevIYOvHFTUUDATsYxTr-2" target="1cBgGJHthWsCfQ61GTgz-9" edge="1">
          <mxGeometry relative="1" as="geometry" />
        </mxCell>
        <mxCell id="HevIYOvHFTUUDATsYxTr-2" value="Administrador" style="shape=umlActor;verticalLabelPosition=bottom;verticalAlign=top;html=1;outlineConnect=0;" parent="1" vertex="1">
          <mxGeometry x="130" y="300" width="30" height="60" as="geometry" />
        </mxCell>
        <mxCell id="HevIYOvHFTUUDATsYxTr-9" style="rounded=0;orthogonalLoop=1;jettySize=auto;html=1;exitX=0.5;exitY=0.5;exitDx=0;exitDy=0;exitPerimeter=0;entryX=1;entryY=0.5;entryDx=0;entryDy=0;" parent="1" source="HevIYOvHFTUUDATsYxTr-3" target="1cBgGJHthWsCfQ61GTgz-2" edge="1">
          <mxGeometry relative="1" as="geometry" />
        </mxCell>
        <mxCell id="HevIYOvHFTUUDATsYxTr-10" style="rounded=0;orthogonalLoop=1;jettySize=auto;html=1;exitX=0.5;exitY=0.5;exitDx=0;exitDy=0;exitPerimeter=0;entryX=1;entryY=0.5;entryDx=0;entryDy=0;" parent="1" source="HevIYOvHFTUUDATsYxTr-3" target="1cBgGJHthWsCfQ61GTgz-1" edge="1">
          <mxGeometry relative="1" as="geometry" />
        </mxCell>
        <mxCell id="HevIYOvHFTUUDATsYxTr-3" value="Empleado" style="shape=umlActor;verticalLabelPosition=bottom;verticalAlign=top;html=1;outlineConnect=0;" parent="1" vertex="1">
          <mxGeometry x="610" y="300" width="30" height="60" as="geometry" />
        </mxCell>
        <mxCell id="HevIYOvHFTUUDATsYxTr-5" style="rounded=0;orthogonalLoop=1;jettySize=auto;html=1;exitX=0.5;exitY=0.5;exitDx=0;exitDy=0;exitPerimeter=0;" parent="1" source="HevIYOvHFTUUDATsYxTr-2" edge="1">
          <mxGeometry relative="1" as="geometry">
            <mxPoint x="280" y="200" as="targetPoint" />
          </mxGeometry>
        </mxCell>
      </root>
    </mxGraphModel>
  </diagram>
  <diagram id="vuWqYv1TW8wjRjoSxg5-" name="Historial de Facturas">
    <mxGraphModel dx="872" dy="529" grid="1" gridSize="10" guides="1" tooltips="1" connect="1" arrows="1" fold="1" page="1" pageScale="1" pageWidth="827" pageHeight="1169" math="0" shadow="0">
      <root>
        <mxCell id="0" />
        <mxCell id="1" parent="0" />
        <mxCell id="21RRKAmehjP4Y_U7lbC_-3" value="" style="swimlane;startSize=0;" vertex="1" parent="1">
          <mxGeometry x="279" y="310" width="270" height="370" as="geometry">
            <mxRectangle x="160" y="50" width="50" height="40" as="alternateBounds" />
          </mxGeometry>
        </mxCell>
        <mxCell id="21RRKAmehjP4Y_U7lbC_-4" value="Proveedores" style="text;html=1;align=center;verticalAlign=middle;resizable=0;points=[];autosize=1;strokeColor=none;fillColor=none;strokeWidth=1;fontSize=15;" vertex="1" parent="21RRKAmehjP4Y_U7lbC_-3">
          <mxGeometry x="11" width="110" height="30" as="geometry" />
        </mxCell>
        <mxCell id="21RRKAmehjP4Y_U7lbC_-1" value="Acceder a Historial de Factura" style="ellipse;whiteSpace=wrap;html=1;" vertex="1" parent="21RRKAmehjP4Y_U7lbC_-3">
          <mxGeometry x="65" y="40" width="120" height="80" as="geometry" />
        </mxCell>
        <mxCell id="21RRKAmehjP4Y_U7lbC_-2" value="Visualizar Facturas" style="ellipse;whiteSpace=wrap;html=1;dashed=1;" vertex="1" parent="21RRKAmehjP4Y_U7lbC_-3">
          <mxGeometry x="65" y="150" width="120" height="80" as="geometry" />
        </mxCell>
        <mxCell id="21RRKAmehjP4Y_U7lbC_-5" value="Filtrar por Fecha, Estado y Cliente" style="ellipse;whiteSpace=wrap;html=1;dashed=1;" vertex="1" parent="21RRKAmehjP4Y_U7lbC_-3">
          <mxGeometry x="84" y="250" width="120" height="80" as="geometry" />
        </mxCell>
        <mxCell id="21RRKAmehjP4Y_U7lbC_-8" value="&amp;lt;&amp;lt;extend&amp;gt;&amp;gt;" style="html=1;verticalAlign=bottom;labelBackgroundColor=none;endArrow=open;endFill=0;dashed=1;rounded=0;fontFamily=Helvetica;fontSize=12;fontColor=default;autosize=1;resizable=0;entryX=1;entryY=0;entryDx=0;entryDy=0;" edge="1" parent="21RRKAmehjP4Y_U7lbC_-3" target="21RRKAmehjP4Y_U7lbC_-5">
          <mxGeometry x="1" y="21" width="160" relative="1" as="geometry">
            <mxPoint x="144" y="230" as="sourcePoint" />
            <mxPoint x="304" y="230" as="targetPoint" />
            <mxPoint x="5" y="5" as="offset" />
          </mxGeometry>
        </mxCell>
        <mxCell id="21RRKAmehjP4Y_U7lbC_-12" value="&amp;lt;&amp;lt;include&amp;gt;&amp;gt;" style="html=1;verticalAlign=bottom;labelBackgroundColor=none;endArrow=open;endFill=0;dashed=1;rounded=0;exitX=0.5;exitY=1;exitDx=0;exitDy=0;entryX=1;entryY=0;entryDx=0;entryDy=0;" edge="1" parent="21RRKAmehjP4Y_U7lbC_-3" source="21RRKAmehjP4Y_U7lbC_-1" target="21RRKAmehjP4Y_U7lbC_-2">
          <mxGeometry x="0.3333" y="20" width="160" relative="1" as="geometry">
            <mxPoint x="115" y="120" as="sourcePoint" />
            <mxPoint x="275" y="120" as="targetPoint" />
            <mxPoint as="offset" />
          </mxGeometry>
        </mxCell>
        <mxCell id="21RRKAmehjP4Y_U7lbC_-13" style="edgeStyle=orthogonalEdgeStyle;rounded=0;orthogonalLoop=1;jettySize=auto;html=1;exitX=0.5;exitY=1;exitDx=0;exitDy=0;" edge="1" parent="1" source="21RRKAmehjP4Y_U7lbC_-3" target="21RRKAmehjP4Y_U7lbC_-3">
          <mxGeometry relative="1" as="geometry" />
        </mxCell>
        <mxCell id="21RRKAmehjP4Y_U7lbC_-15" style="rounded=0;orthogonalLoop=1;jettySize=auto;html=1;exitX=0.5;exitY=0.5;exitDx=0;exitDy=0;exitPerimeter=0;entryX=0;entryY=0.5;entryDx=0;entryDy=0;" edge="1" parent="1" source="21RRKAmehjP4Y_U7lbC_-14" target="21RRKAmehjP4Y_U7lbC_-1">
          <mxGeometry relative="1" as="geometry" />
        </mxCell>
        <mxCell id="21RRKAmehjP4Y_U7lbC_-16" style="rounded=0;orthogonalLoop=1;jettySize=auto;html=1;exitX=0.5;exitY=0.5;exitDx=0;exitDy=0;exitPerimeter=0;entryX=0;entryY=0.5;entryDx=0;entryDy=0;" edge="1" parent="1" source="21RRKAmehjP4Y_U7lbC_-14" target="21RRKAmehjP4Y_U7lbC_-2">
          <mxGeometry relative="1" as="geometry" />
        </mxCell>
        <mxCell id="21RRKAmehjP4Y_U7lbC_-17" style="rounded=0;orthogonalLoop=1;jettySize=auto;html=1;exitX=0.5;exitY=0.5;exitDx=0;exitDy=0;exitPerimeter=0;entryX=0;entryY=0.5;entryDx=0;entryDy=0;" edge="1" parent="1" source="21RRKAmehjP4Y_U7lbC_-14" target="21RRKAmehjP4Y_U7lbC_-5">
          <mxGeometry relative="1" as="geometry" />
        </mxCell>
        <mxCell id="21RRKAmehjP4Y_U7lbC_-14" value="Administrador" style="shape=umlActor;verticalLabelPosition=bottom;verticalAlign=top;html=1;outlineConnect=0;" vertex="1" parent="1">
          <mxGeometry x="140" y="440" width="30" height="60" as="geometry" />
        </mxCell>
      </root>
    </mxGraphModel>
  </diagram>
  <diagram id="FWAKt372dgb-zTKjZlpZ" name="Ganancias">
    <mxGraphModel dx="872" dy="529" grid="1" gridSize="10" guides="1" tooltips="1" connect="1" arrows="1" fold="1" page="1" pageScale="1" pageWidth="827" pageHeight="1169" math="0" shadow="0">
      <root>
        <mxCell id="0" />
        <mxCell id="1" parent="0" />
        <mxCell id="ltC6SpWjnWddYvnfLJMM-7" style="rounded=0;orthogonalLoop=1;jettySize=auto;html=1;exitX=0.5;exitY=0.5;exitDx=0;exitDy=0;exitPerimeter=0;entryX=0;entryY=0.5;entryDx=0;entryDy=0;" edge="1" parent="1" source="5tjztXX-tCZkqzDB9mD--1" target="ltC6SpWjnWddYvnfLJMM-1">
          <mxGeometry relative="1" as="geometry" />
        </mxCell>
        <mxCell id="ltC6SpWjnWddYvnfLJMM-8" style="rounded=0;orthogonalLoop=1;jettySize=auto;html=1;exitX=0.5;exitY=0.5;exitDx=0;exitDy=0;exitPerimeter=0;entryX=0;entryY=0.5;entryDx=0;entryDy=0;" edge="1" parent="1" source="5tjztXX-tCZkqzDB9mD--1" target="ltC6SpWjnWddYvnfLJMM-2">
          <mxGeometry relative="1" as="geometry" />
        </mxCell>
        <mxCell id="5tjztXX-tCZkqzDB9mD--1" value="Administrador" style="shape=umlActor;verticalLabelPosition=bottom;verticalAlign=top;html=1;outlineConnect=0;" vertex="1" parent="1">
          <mxGeometry x="150" y="240" width="30" height="60" as="geometry" />
        </mxCell>
        <mxCell id="5tjztXX-tCZkqzDB9mD--2" value="" style="swimlane;startSize=0;" vertex="1" parent="1">
          <mxGeometry x="280" y="90" width="250" height="260" as="geometry" />
        </mxCell>
        <mxCell id="ltC6SpWjnWddYvnfLJMM-1" value="Acceder a Ganancias" style="ellipse;whiteSpace=wrap;html=1;" vertex="1" parent="5tjztXX-tCZkqzDB9mD--2">
          <mxGeometry x="64" y="35" width="120" height="80" as="geometry" />
        </mxCell>
        <mxCell id="ltC6SpWjnWddYvnfLJMM-2" value="Visualizar Ganancias Totales" style="ellipse;whiteSpace=wrap;html=1;dashed=1;" vertex="1" parent="5tjztXX-tCZkqzDB9mD--2">
          <mxGeometry x="64" y="145" width="120" height="80" as="geometry" />
        </mxCell>
        <mxCell id="ltC6SpWjnWddYvnfLJMM-5" value="&amp;lt;&amp;lt;include&amp;gt;&amp;gt;" style="html=1;verticalAlign=bottom;labelBackgroundColor=none;endArrow=open;endFill=0;dashed=1;rounded=0;exitX=0.5;exitY=1;exitDx=0;exitDy=0;entryX=1;entryY=0;entryDx=0;entryDy=0;" edge="1" parent="5tjztXX-tCZkqzDB9mD--2" source="ltC6SpWjnWddYvnfLJMM-1" target="ltC6SpWjnWddYvnfLJMM-2">
          <mxGeometry x="0.3333" y="20" width="160" relative="1" as="geometry">
            <mxPoint x="114" y="115" as="sourcePoint" />
            <mxPoint x="274" y="115" as="targetPoint" />
            <mxPoint as="offset" />
          </mxGeometry>
        </mxCell>
        <mxCell id="ltC6SpWjnWddYvnfLJMM-6" value="Ganancias" style="text;html=1;align=center;verticalAlign=middle;resizable=0;points=[];autosize=1;strokeColor=none;fillColor=none;fontSize=15;" vertex="1" parent="1">
          <mxGeometry x="270" y="98" width="100" height="30" as="geometry" />
        </mxCell>
      </root>
    </mxGraphModel>
  </diagram>
</mxfile>
